<svg xmlns="http://www.w3.org/2000/svg" xmlns:xlink="http://www.w3.org/1999/xlink" width="1920" zoomAndPan="magnify" viewBox="0 0 1440 809.999993" height="1080" preserveAspectRatio="xMidYMid meet" version="1.2"><defs/><g id="41f729bbcc"><rect x="0" width="1440" y="0" height="809.999993" style="fill:#ffffff;fill-opacity:1;stroke:none;"/><rect x="0" width="1440" y="0" height="809.999993" style="fill:#ffffff;fill-opacity:1;stroke:none;"/><g style="fill:#000000;fill-opacity:1;"><g transform="translate(7.616153, 473.999996)"><path style="stroke:none" d="M 122.171875 0 L 7.34375 0 L 64.765625 -124.453125 Z M 17.5 -6.46875 L 112.015625 -6.46875 L 64.765625 -109.046875 Z M 17.5 -6.46875 "/></g></g><g style="fill:#000000;fill-opacity:1;"><g transform="translate(137.139317, 473.999996)"><path style="stroke:none" d="M 21 0 L 21 -121.828125 L 66.34375 -121.828125 C 75.207031 -121.828125 83.398438 -119.609375 90.921875 -115.171875 C 98.453125 -110.734375 104.429688 -104.75 108.859375 -97.21875 C 113.296875 -89.695312 115.515625 -81.503906 115.515625 -72.640625 L 115.515625 -49.1875 C 115.515625 -40.3125 113.296875 -32.109375 108.859375 -24.578125 C 104.429688 -17.054688 98.453125 -11.078125 90.921875 -6.640625 C 83.398438 -2.210938 75.207031 0 66.34375 0 Z M 21 0 "/></g></g><g style="fill:#000000;fill-opacity:1;"><g transform="translate(266.66248, 473.999996)"><path style="stroke:none" d="M 17.859375 0 L 17.859375 -121.828125 L 24.328125 -121.828125 L 24.328125 -64.234375 L 105.1875 -64.234375 L 105.1875 -121.828125 L 111.671875 -121.828125 L 111.671875 0 L 105.1875 0 L 105.1875 -57.765625 L 24.328125 -57.765625 L 24.328125 0 Z M 17.859375 0 "/></g></g><g style="fill:#000000;fill-opacity:1;"><g transform="translate(396.185629, 473.999996)"><path style="stroke:none" d="M 21 0 L 21 -121.828125 L 66.34375 -121.828125 C 75.207031 -121.828125 83.398438 -119.609375 90.921875 -115.171875 C 98.453125 -110.734375 104.429688 -104.75 108.859375 -97.21875 C 113.296875 -89.695312 115.515625 -81.503906 115.515625 -72.640625 L 115.515625 -49.1875 C 115.515625 -40.3125 113.296875 -32.109375 108.859375 -24.578125 C 104.429688 -17.054688 98.453125 -11.078125 90.921875 -6.640625 C 83.398438 -2.210938 75.207031 0 66.34375 0 Z M 21 0 "/></g></g><g style="fill:#000000;fill-opacity:1;"><g transform="translate(655.231971, 473.999996)"><path style="stroke:none" d="M 89.265625 -118.328125 C 94.753906 -115.523438 98.984375 -111.671875 101.953125 -106.765625 C 104.929688 -101.867188 106.421875 -96.382812 106.421875 -90.3125 C 106.421875 -84.59375 104.929688 -79.3125 101.953125 -74.46875 C 98.984375 -69.632812 94.867188 -65.816406 89.609375 -63.015625 C 95.796875 -60.910156 100.929688 -57.054688 105.015625 -51.453125 C 109.097656 -45.859375 111.140625 -39.675781 111.140625 -32.90625 C 111.140625 -26.832031 109.625 -21.226562 106.59375 -16.09375 C 103.5625 -10.96875 99.535156 -7.003906 94.515625 -4.203125 C 91.953125 -2.796875 89.09375 -1.742188 85.9375 -1.046875 C 82.789062 -0.347656 78.59375 0 73.34375 0 L 22.234375 0 L 22.234375 -121.828125 L 70.890625 -121.828125 C 78.585938 -121.828125 84.710938 -120.660156 89.265625 -118.328125 Z M 86.46875 -68.09375 C 90.664062 -70.1875 93.988281 -73.21875 96.4375 -77.1875 C 98.894531 -81.15625 100.125 -85.53125 100.125 -90.3125 C 100.125 -95.6875 98.722656 -100.382812 95.921875 -104.40625 C 93.117188 -108.425781 89.554688 -111.375 85.234375 -113.25 C 81.972656 -114.644531 76.488281 -115.34375 68.78125 -115.34375 L 28.53125 -115.34375 L 28.53125 -65.28125 L 71.9375 -65.28125 C 78.007812 -65.28125 82.851562 -66.21875 86.46875 -68.09375 Z M 90.671875 -9.109375 C 94.984375 -11.316406 98.421875 -14.550781 100.984375 -18.8125 C 103.554688 -23.070312 104.84375 -27.710938 104.84375 -32.734375 C 104.84375 -37.984375 103.5 -42.738281 100.8125 -47 C 98.132812 -51.257812 94.519531 -54.4375 89.96875 -56.53125 C 86.46875 -58.164062 81.738281 -58.984375 75.78125 -58.984375 L 28.53125 -58.984375 L 28.53125 -6.296875 L 73.515625 -6.296875 C 77.953125 -6.296875 81.453125 -6.53125 84.015625 -7 C 86.578125 -7.46875 88.796875 -8.171875 90.671875 -9.109375 Z M 90.671875 -9.109375 "/></g></g><g style="fill:#000000;fill-opacity:1;"><g transform="translate(784.755097, 473.999996)"><path style="stroke:none" d="M 91.1875 -117.796875 C 98.1875 -114.523438 103.695312 -109.679688 107.71875 -103.265625 C 111.75 -96.847656 113.765625 -89.734375 113.765625 -81.921875 C 113.765625 -72.816406 110.992188 -64.675781 105.453125 -57.5 C 99.910156 -50.320312 92.820312 -45.566406 84.1875 -43.234375 L 115.171875 0 L 107.46875 0 L 77.53125 -42 L 71.9375 -41.828125 L 28 -41.828125 L 28 0 L 21.53125 0 L 21.53125 -121.828125 L 67.90625 -121.828125 C 73.039062 -121.828125 77.445312 -121.503906 81.125 -120.859375 C 84.800781 -120.210938 88.15625 -119.191406 91.1875 -117.796875 Z M 73.6875 -48.3125 C 79.757812 -48.3125 85.359375 -49.828125 90.484375 -52.859375 C 95.617188 -55.890625 99.703125 -59.972656 102.734375 -65.109375 C 105.773438 -70.242188 107.296875 -75.847656 107.296875 -81.921875 C 107.296875 -88.679688 105.515625 -94.800781 101.953125 -100.28125 C 98.398438 -105.769531 93.472656 -109.859375 87.171875 -112.546875 C 82.617188 -114.410156 76.195312 -115.34375 67.90625 -115.34375 L 28 -115.34375 L 28 -48.3125 Z M 73.6875 -48.3125 "/></g></g><g style="fill:#000000;fill-opacity:1;"><g transform="translate(914.278313, 473.999996)"><path style="stroke:none" d="M 104.3125 -121.828125 L 104.3125 -115.34375 L 67.90625 -115.34375 L 67.90625 -6.46875 L 104.3125 -6.46875 L 104.3125 0 L 25.375 0 L 25.375 -6.46875 L 61.609375 -6.46875 L 61.609375 -115.34375 L 25.375 -115.34375 L 25.375 -121.828125 Z M 104.3125 -121.828125 "/></g></g><g style="fill:#000000;fill-opacity:1;"><g transform="translate(1043.801439, 473.999996)"><path style="stroke:none" d="M 63.53125 -121.828125 C 72.40625 -121.828125 80.601562 -119.609375 88.125 -115.171875 C 95.65625 -110.734375 101.632812 -104.75 106.0625 -97.21875 C 110.5 -89.695312 112.71875 -81.503906 112.71875 -72.640625 L 112.71875 -49.1875 C 112.71875 -40.3125 110.5 -32.109375 106.0625 -24.578125 C 101.632812 -17.054688 95.65625 -11.078125 88.125 -6.640625 C 80.601562 -2.210938 72.40625 0 63.53125 0 L 18.546875 0 L 18.546875 -121.828125 Z M 106.25 -72.640625 C 106.25 -80.335938 104.320312 -87.453125 100.46875 -93.984375 C 96.613281 -100.523438 91.390625 -105.71875 84.796875 -109.5625 C 78.203125 -113.414062 71.054688 -115.34375 63.359375 -115.34375 L 25.03125 -115.34375 L 25.03125 -6.46875 L 63.359375 -6.46875 C 71.054688 -6.46875 78.203125 -8.394531 84.796875 -12.25 C 91.390625 -16.101562 96.613281 -21.296875 100.46875 -27.828125 C 104.320312 -34.359375 106.25 -41.476562 106.25 -49.1875 Z M 106.25 -72.640625 "/></g></g><g style="fill:#000000;fill-opacity:1;"><g transform="translate(1173.324565, 473.999996)"><path style="stroke:none" d="M 107.640625 -25.03125 C 104.492188 -16.976562 98.773438 -10.351562 90.484375 -5.15625 C 82.203125 0.03125 73.335938 2.625 63.890625 2.625 C 54.785156 2.625 46.378906 0.347656 38.671875 -4.203125 C 30.972656 -8.753906 24.878906 -15.023438 20.390625 -23.015625 C 15.898438 -31.003906 13.65625 -39.785156 13.65625 -49.359375 L 13.65625 -73.859375 C 13.65625 -83.191406 15.898438 -91.707031 20.390625 -99.40625 C 24.878906 -107.113281 30.945312 -113.210938 38.59375 -117.703125 C 46.238281 -122.203125 54.671875 -124.453125 63.890625 -124.453125 C 71.472656 -124.453125 78.414062 -123.195312 84.71875 -120.6875 C 91.019531 -118.175781 96.382812 -114.53125 100.8125 -109.75 C 104.4375 -105.78125 107.382812 -101.34375 109.65625 -96.4375 C 111.925781 -91.539062 113.0625 -86.582031 113.0625 -81.5625 L 106.765625 -81.5625 C 106.648438 -85.882812 105.570312 -90.144531 103.53125 -94.34375 C 101.488281 -98.539062 98.890625 -102.332031 95.734375 -105.71875 C 87.921875 -113.882812 77.304688 -117.96875 63.890625 -117.96875 C 55.835938 -117.96875 48.457031 -116.015625 41.75 -112.109375 C 35.039062 -108.203125 29.757812 -102.890625 25.90625 -96.171875 C 22.050781 -89.460938 20.125 -82.023438 20.125 -73.859375 L 20.125 -49.359375 C 20.125 -40.835938 22.078125 -33.101562 25.984375 -26.15625 C 29.898438 -19.21875 35.210938 -13.765625 41.921875 -9.796875 C 48.628906 -5.828125 55.953125 -3.84375 63.890625 -3.84375 C 71.941406 -3.84375 79.320312 -5.796875 86.03125 -9.703125 C 92.738281 -13.617188 98.015625 -18.929688 101.859375 -25.640625 C 105.710938 -32.347656 107.640625 -39.671875 107.640625 -47.609375 L 107.640625 -53.734375 L 63.890625 -53.734375 L 63.890625 -60.203125 L 114.125 -60.203125 L 114.125 0 L 107.640625 0 Z M 107.640625 -25.03125 "/></g></g><g style="fill:#000000;fill-opacity:1;"><g transform="translate(1302.847781, 473.999996)"><path style="stroke:none" d="M 22.75 -121.828125 L 108.515625 -121.828125 L 108.515625 -115.34375 L 29.234375 -115.34375 L 29.234375 -65.984375 L 98.1875 -65.984375 L 98.1875 -59.515625 L 29.234375 -59.515625 L 29.234375 -6.46875 L 108.515625 -6.46875 L 108.515625 0 L 22.75 0 Z M 22.75 -121.828125 "/></g></g></g></svg>