<svg xmlns="http://www.w3.org/2000/svg" xmlns:xlink="http://www.w3.org/1999/xlink" width="794" zoomAndPan="magnify" viewBox="0 0 595.5 842.249979" height="1123" preserveAspectRatio="xMidYMid meet" version="1.2"><defs/><g id="b3e924574c"><g style="fill:#000000;fill-opacity:1;"><g transform="translate(121.460318, 412.954819)"><path style="stroke:none" d="M 83.03125 0 L 5 0 L 44.015625 -84.578125 Z M 11.890625 -4.40625 L 76.125 -4.40625 L 44.015625 -74.109375 Z M 11.890625 -4.40625 "/></g></g><g style="fill:#000000;fill-opacity:1;"><g transform="translate(209.478013, 412.954819)"><path style="stroke:none" d="M 14.28125 0 L 14.28125 -82.796875 L 45.078125 -82.796875 C 51.109375 -82.796875 56.679688 -81.285156 61.796875 -78.265625 C 66.910156 -75.253906 70.972656 -71.191406 73.984375 -66.078125 C 77.003906 -60.960938 78.515625 -55.390625 78.515625 -49.359375 L 78.515625 -33.421875 C 78.515625 -27.398438 77.003906 -21.832031 73.984375 -16.71875 C 70.972656 -11.601562 66.910156 -7.535156 61.796875 -4.515625 C 56.679688 -1.503906 51.109375 0 45.078125 0 Z M 14.28125 0 "/></g></g><g style="fill:#000000;fill-opacity:1;"><g transform="translate(297.495707, 412.954819)"><path style="stroke:none" d="M 12.140625 0 L 12.140625 -82.796875 L 16.53125 -82.796875 L 16.53125 -43.65625 L 71.484375 -43.65625 L 71.484375 -82.796875 L 75.890625 -82.796875 L 75.890625 0 L 71.484375 0 L 71.484375 -39.25 L 16.53125 -39.25 L 16.53125 0 Z M 12.140625 0 "/></g></g><g style="fill:#000000;fill-opacity:1;"><g transform="translate(385.513401, 412.954819)"><path style="stroke:none" d="M 14.28125 0 L 14.28125 -82.796875 L 45.078125 -82.796875 C 51.109375 -82.796875 56.679688 -81.285156 61.796875 -78.265625 C 66.910156 -75.253906 70.972656 -71.191406 73.984375 -66.078125 C 77.003906 -60.960938 78.515625 -55.390625 78.515625 -49.359375 L 78.515625 -33.421875 C 78.515625 -27.398438 77.003906 -21.832031 73.984375 -16.71875 C 70.972656 -11.601562 66.910156 -7.535156 61.796875 -4.515625 C 56.679688 -1.503906 51.109375 0 45.078125 0 Z M 14.28125 0 "/></g></g><g style="fill:#000000;fill-opacity:1;"><g transform="translate(33.439101, 579.369385)"><path style="stroke:none" d="M 60.671875 -80.40625 C 64.390625 -78.507812 67.257812 -75.894531 69.28125 -72.5625 C 71.3125 -69.226562 72.328125 -65.5 72.328125 -61.375 C 72.328125 -57.488281 71.3125 -53.898438 69.28125 -50.609375 C 67.257812 -47.316406 64.46875 -44.722656 60.90625 -42.828125 C 65.101562 -41.398438 68.585938 -38.78125 71.359375 -34.96875 C 74.140625 -31.164062 75.53125 -26.960938 75.53125 -22.359375 C 75.53125 -18.234375 74.5 -14.425781 72.4375 -10.9375 C 70.375 -7.445312 67.640625 -4.753906 64.234375 -2.859375 C 62.492188 -1.898438 60.550781 -1.179688 58.40625 -0.703125 C 56.257812 -0.234375 53.40625 0 49.84375 0 L 15.109375 0 L 15.109375 -82.796875 L 48.171875 -82.796875 C 53.410156 -82.796875 57.578125 -82 60.671875 -80.40625 Z M 58.765625 -46.265625 C 61.617188 -47.691406 63.878906 -49.753906 65.546875 -52.453125 C 67.210938 -55.148438 68.046875 -58.125 68.046875 -61.375 C 68.046875 -65.03125 67.09375 -68.222656 65.1875 -70.953125 C 63.28125 -73.691406 60.863281 -75.695312 57.9375 -76.96875 C 55.707031 -77.914062 51.976562 -78.390625 46.75 -78.390625 L 19.390625 -78.390625 L 19.390625 -44.375 L 48.890625 -44.375 C 53.015625 -44.375 56.304688 -45.003906 58.765625 -46.265625 Z M 61.625 -6.1875 C 64.550781 -7.695312 66.882812 -9.894531 68.625 -12.78125 C 70.375 -15.675781 71.25 -18.832031 71.25 -22.25 C 71.25 -25.8125 70.335938 -29.039062 68.515625 -31.9375 C 66.691406 -34.832031 64.234375 -36.992188 61.140625 -38.421875 C 58.765625 -39.535156 55.550781 -40.09375 51.5 -40.09375 L 19.390625 -40.09375 L 19.390625 -4.28125 L 49.953125 -4.28125 C 52.972656 -4.28125 55.351562 -4.4375 57.09375 -4.75 C 58.84375 -5.070312 60.351562 -5.550781 61.625 -6.1875 Z M 61.625 -6.1875 "/></g></g><g style="fill:#000000;fill-opacity:1;"><g transform="translate(121.456795, 579.369385)"><path style="stroke:none" d="M 61.96875 -80.0625 C 66.726562 -77.832031 70.472656 -74.535156 73.203125 -70.171875 C 75.941406 -65.816406 77.3125 -60.984375 77.3125 -55.671875 C 77.3125 -49.484375 75.425781 -43.953125 71.65625 -39.078125 C 67.894531 -34.203125 63.082031 -30.96875 57.21875 -29.375 L 78.265625 0 L 73.03125 0 L 52.703125 -28.546875 L 48.890625 -28.4375 L 19.03125 -28.4375 L 19.03125 0 L 14.625 0 L 14.625 -82.796875 L 46.15625 -82.796875 C 49.644531 -82.796875 52.632812 -82.578125 55.125 -82.140625 C 57.625 -81.703125 59.90625 -81.007812 61.96875 -80.0625 Z M 50.078125 -32.828125 C 54.203125 -32.828125 58.007812 -33.859375 61.5 -35.921875 C 64.988281 -37.984375 67.765625 -40.757812 69.828125 -44.25 C 71.890625 -47.738281 72.921875 -51.546875 72.921875 -55.671875 C 72.921875 -60.265625 71.707031 -64.425781 69.28125 -68.15625 C 66.863281 -71.882812 63.515625 -74.660156 59.234375 -76.484375 C 56.140625 -77.753906 51.78125 -78.390625 46.15625 -78.390625 L 19.03125 -78.390625 L 19.03125 -32.828125 Z M 50.078125 -32.828125 "/></g></g><g style="fill:#000000;fill-opacity:1;"><g transform="translate(209.474489, 579.369385)"><path style="stroke:none" d="M 70.890625 -82.796875 L 70.890625 -78.390625 L 46.15625 -78.390625 L 46.15625 -4.40625 L 70.890625 -4.40625 L 70.890625 0 L 17.25 0 L 17.25 -4.40625 L 41.875 -4.40625 L 41.875 -78.390625 L 17.25 -78.390625 L 17.25 -82.796875 Z M 70.890625 -82.796875 "/></g></g><g style="fill:#000000;fill-opacity:1;"><g transform="translate(297.492184, 579.369385)"><path style="stroke:none" d="M 43.1875 -82.796875 C 49.207031 -82.796875 54.773438 -81.285156 59.890625 -78.265625 C 65.003906 -75.253906 69.066406 -71.191406 72.078125 -66.078125 C 75.097656 -60.960938 76.609375 -55.390625 76.609375 -49.359375 L 76.609375 -33.421875 C 76.609375 -27.398438 75.097656 -21.832031 72.078125 -16.71875 C 69.066406 -11.601562 65.003906 -7.535156 59.890625 -4.515625 C 54.773438 -1.503906 49.207031 0 43.1875 0 L 12.609375 0 L 12.609375 -82.796875 Z M 72.203125 -49.359375 C 72.203125 -54.597656 70.894531 -59.4375 68.28125 -63.875 C 65.664062 -68.320312 62.113281 -71.851562 57.625 -74.46875 C 53.144531 -77.082031 48.289062 -78.390625 43.0625 -78.390625 L 17.015625 -78.390625 L 17.015625 -4.40625 L 43.0625 -4.40625 C 48.289062 -4.40625 53.144531 -5.710938 57.625 -8.328125 C 62.113281 -10.941406 65.664062 -14.46875 68.28125 -18.90625 C 70.894531 -23.351562 72.203125 -28.191406 72.203125 -33.421875 Z M 72.203125 -49.359375 "/></g></g><g style="fill:#000000;fill-opacity:1;"><g transform="translate(385.509878, 579.369385)"><path style="stroke:none" d="M 73.15625 -17.015625 C 71.007812 -11.535156 67.117188 -7.03125 61.484375 -3.5 C 55.859375 0.0195312 49.835938 1.78125 43.421875 1.78125 C 37.234375 1.78125 31.519531 0.234375 26.28125 -2.859375 C 21.050781 -5.953125 16.910156 -10.210938 13.859375 -15.640625 C 10.804688 -21.078125 9.28125 -27.046875 9.28125 -33.546875 L 9.28125 -50.203125 C 9.28125 -56.546875 10.804688 -62.332031 13.859375 -67.5625 C 16.910156 -72.800781 21.03125 -76.945312 26.21875 -80 C 31.414062 -83.050781 37.148438 -84.578125 43.421875 -84.578125 C 48.578125 -84.578125 53.296875 -83.722656 57.578125 -82.015625 C 61.859375 -80.304688 65.503906 -77.828125 68.515625 -74.578125 C 70.972656 -71.890625 72.972656 -68.878906 74.515625 -65.546875 C 76.066406 -62.210938 76.84375 -58.84375 76.84375 -55.4375 L 72.5625 -55.4375 C 72.476562 -58.363281 71.742188 -61.253906 70.359375 -64.109375 C 68.972656 -66.960938 67.207031 -69.539062 65.0625 -71.84375 C 59.75 -77.394531 52.535156 -80.171875 43.421875 -80.171875 C 37.941406 -80.171875 32.921875 -78.84375 28.359375 -76.1875 C 23.804688 -73.53125 20.21875 -69.921875 17.59375 -65.359375 C 14.976562 -60.804688 13.671875 -55.753906 13.671875 -50.203125 L 13.671875 -33.546875 C 13.671875 -27.753906 15 -22.5 17.65625 -17.78125 C 20.320312 -13.0625 23.929688 -9.351562 28.484375 -6.65625 C 33.046875 -3.957031 38.023438 -2.609375 43.421875 -2.609375 C 48.890625 -2.609375 53.90625 -3.9375 58.46875 -6.59375 C 63.03125 -9.257812 66.617188 -12.867188 69.234375 -17.421875 C 71.847656 -21.984375 73.15625 -26.960938 73.15625 -32.359375 L 73.15625 -36.515625 L 43.421875 -36.515625 L 43.421875 -40.921875 L 77.5625 -40.921875 L 77.5625 0 L 73.15625 0 Z M 73.15625 -17.015625 "/></g></g><g style="fill:#000000;fill-opacity:1;"><g transform="translate(473.527572, 579.369385)"><path style="stroke:none" d="M 15.46875 -82.796875 L 73.75 -82.796875 L 73.75 -78.390625 L 19.859375 -78.390625 L 19.859375 -44.84375 L 66.734375 -44.84375 L 66.734375 -40.4375 L 19.859375 -40.4375 L 19.859375 -4.40625 L 73.75 -4.40625 L 73.75 0 L 15.46875 0 Z M 15.46875 -82.796875 "/></g></g></g></svg>